<svg xmlns="http://www.w3.org/2000/svg" viewBox="0 0 128.56458318367345 128.56458318367345" height="128.56458318367345"
	width="128.56458318367345">
	<g>
		<path xmlns="http://www.w3.org/2000/svg"
			d="M38.569 128.565c-21.301 0-38.569-17.268-38.569-38.57v-51.426c0-21.301 17.268-38.569 38.569-38.569h51.426c21.301 0 38.569 17.268 38.57 38.569v51.426c0 21.301-17.268 38.569-38.57 38.57z"
			fill="#712689" fill-rule="nonzero" stroke="none" stroke-width="1" stroke-linecap="butt"
			stroke-linejoin="miter" stroke-miterlimit="10" stroke-dasharray="" stroke-dashoffset="0" font-family="none"
			font-weight="none" font-size="none" text-anchor="none" style="mix-blend-mode: normal"
			data-fill-palette-color="accent" />
	</g>
	<g transform="matrix(1,0,0,1,25.71291663673469,27.51435537335213)">
		<svg viewBox="0 0 77.13874991020407 73.53587243696919" height="73.53587243696919" width="77.13874991020407">
			<g>
				<svg xmlns="http://www.w3.org/2000/svg" xmlns:xlink="http://www.w3.org/1999/xlink" version="1.1" x="0"
					y="0" viewBox="0.2109994888305664 4.989999771118164 99.66500091552734 95.01000213623047"
					enable-background="new 0 0 100 100" xml:space="preserve" width="77.13874991020407"
					height="73.53587243696919" class="icon-symbol-0" data-fill-palette-color="quaternary" id="symbol-0">
					<circle cx="23.204" cy="58.902" r="10.356" fill="#d1abff" data-fill-palette-color="quaternary" />
					<path
						d="M37.868 61.021c-1.052 0-1.903-0.851-1.903-1.904s0.85-1.902 1.903-1.902c1.055 0 1.904 0.849 1.904 1.902 0 0.509-0.191 0.978-0.559 1.347C38.859 60.817 38.375 61.021 37.868 61.021L37.868 61.021zM8.763 59.599c-0.063 0-0.126 0-0.189 0-1.041-0.116-1.814-1.04-1.713-2.08 0-0.013 0-0.013 0.012-0.025 0.103-1.026 0.99-1.776 2.07-1.688 0.507 0.051 0.963 0.291 1.282 0.687 0.33 0.395 0.483 0.887 0.431 1.395C10.553 58.864 9.741 59.599 8.763 59.599L8.763 59.599zM36.509 54.868c-0.736 0-1.408-0.433-1.727-1.094-0.216-0.473-0.241-0.979-0.064-1.461 0.178-0.482 0.534-0.862 0.991-1.079 0.928-0.432 2.095 0.014 2.526 0.927 0.216 0.469 0.24 0.977 0.062 1.462-0.177 0.467-0.519 0.861-0.99 1.063C37.055 54.814 36.789 54.868 36.509 54.868L36.509 54.868zM10.706 53.624c-0.341 0-0.672-0.104-0.964-0.269-0.901-0.533-1.206-1.702-0.673-2.614 0.509-0.862 1.738-1.181 2.602-0.673 0.901 0.534 1.206 1.702 0.685 2.615C12.001 53.253 11.378 53.624 10.706 53.624L10.706 53.624zM32.691 49.878c-0.459 0-0.889-0.165-1.231-0.458-0.802-0.671-0.902-1.877-0.23-2.677 0.661-0.774 1.917-0.876 2.69-0.229 0.8 0.672 0.901 1.877 0.229 2.677C33.782 49.624 33.248 49.878 32.691 49.878L32.691 49.878zM14.995 49.014c-0.619 0-1.203-0.317-1.56-0.825-0.292-0.42-0.406-0.925-0.304-1.421 0.087-0.509 0.368-0.94 0.787-1.23 0.838-0.573 2.069-0.346 2.652 0.492 0.596 0.852 0.369 2.044-0.483 2.641-0.012 0.011-0.025 0.011-0.038 0.024C15.733 48.899 15.379 49.014 14.995 49.014L14.995 49.014zM27.119 46.945c-0.166 0-0.344-0.026-0.496-0.064-1.016-0.28-1.625-1.332-1.346-2.348 0.266-0.978 1.332-1.599 2.335-1.332 1.016 0.278 1.611 1.318 1.345 2.335C28.73 46.362 27.968 46.945 27.119 46.945L27.119 46.945zM20.822 46.643c-0.926 0-1.712-0.674-1.865-1.589-0.089-0.507 0.026-1.015 0.317-1.42 0.305-0.42 0.736-0.686 1.244-0.773 0.102-0.025 0.205-0.025 0.316-0.025 0.927 0 1.714 0.658 1.866 1.587 0.177 1.028-0.52 2.017-1.547 2.196C21.038 46.628 20.938 46.643 20.822 46.643L20.822 46.643z"
						fill="#d1abff" data-fill-palette-color="quaternary" />
					<circle cx="76.267" cy="58.902" r="10.356" fill="#d1abff" data-fill-palette-color="quaternary" />
					<path
						d="M90.937 61.021c-1.055 0-1.906-0.851-1.906-1.904s0.852-1.902 1.906-1.902c1.052 0 1.9 0.849 1.9 1.902S91.988 61.021 90.937 61.021L90.937 61.021zM61.832 59.599c-0.066 0-0.127 0-0.191-0.012-0.509-0.039-0.964-0.277-1.282-0.672-0.331-0.396-0.482-0.89-0.434-1.396 0.103-1.042 1.003-1.803 2.082-1.716 0.507 0.052 0.966 0.292 1.282 0.688 0.33 0.394 0.483 0.887 0.433 1.38C63.634 58.864 62.808 59.599 61.832 59.599L61.832 59.599zM89.578 54.878c-0.737 0-1.41-0.43-1.728-1.104-0.215-0.457-0.242-0.979-0.062-1.46 0.174-0.469 0.52-0.861 0.989-1.065 0.926-0.431 2.094 0 2.525 0.913 0.446 0.95 0.037 2.094-0.913 2.537C90.122 54.814 89.856 54.878 89.578 54.878L89.578 54.878zM63.774 53.624c-0.344 0-0.674-0.104-0.967-0.269-0.442-0.267-0.749-0.674-0.875-1.168-0.128-0.491-0.05-1.002 0.206-1.446 0.508-0.862 1.724-1.181 2.601-0.673 0.902 0.534 1.206 1.712 0.673 2.615C65.067 53.253 64.443 53.624 63.774 53.624L63.774 53.624zM85.756 49.878c-0.455 0-0.888-0.165-1.231-0.458-0.799-0.671-0.902-1.877-0.228-2.677 0.648-0.761 1.878-0.876 2.651-0.254 0.014 0 0.025 0.014 0.039 0.026 0.801 0.672 0.901 1.877 0.217 2.677C86.848 49.624 86.315 49.878 85.756 49.878L85.756 49.878zM68.062 49.014c-0.621 0-1.204-0.317-1.559-0.825-0.598-0.863-0.384-2.057 0.48-2.651 0.838-0.574 2.068-0.344 2.638 0.48 0.598 0.864 0.382 2.057-0.481 2.653C68.823 48.887 68.456 49.014 68.062 49.014L68.062 49.014zM80.186 46.945c-0.165 0-0.347-0.026-0.51-0.064-0.483-0.138-0.9-0.456-1.141-0.899-0.255-0.433-0.318-0.953-0.192-1.449 0.266-0.989 1.345-1.611 2.335-1.332 0.495 0.125 0.901 0.442 1.155 0.887 0.255 0.444 0.316 0.953 0.178 1.448C81.795 46.362 81.035 46.945 80.186 46.945L80.186 46.945zM73.889 46.643c-0.925 0-1.712-0.674-1.879-1.589-0.165-1.028 0.521-2.005 1.549-2.193h0.015c1.053-0.18 2.018 0.531 2.193 1.561 0.18 1.028-0.521 2.017-1.559 2.196C74.104 46.628 73.991 46.643 73.889 46.643L73.889 46.643z"
						fill="#d1abff" data-fill-palette-color="quaternary" />
					<path
						d="M8.721 100l0.002-14.587h2.509V100h25.169V85.413h2.503L38.91 100h8.517V82.375c0-7.001-5.016-10.969-11.873-10.969H12.082c-6.862 0-11.871 3.968-11.871 10.969V100H8.721z"
						fill="#d1abff" data-fill-palette-color="quaternary" />
					<path
						d="M61.172 100V85.413h2.508V100h25.169V85.413h2.505L91.357 100h8.519V82.375c0-7.001-5.015-10.969-11.874-10.969H64.529c-6.859 0-11.872 3.968-11.872 10.969V100H61.172z"
						fill="#d1abff" data-fill-palette-color="quaternary" />
					<g fill="#d1abff" data-fill-palette-color="quaternary">
						<path
							d="M46.591 13.293c-12.225 0-22.356 8.997-24.199 20.708l-5.903-5.56-2.511 2.665 9.7 9.137 10.395-8.329-2.289-2.857-5.619 4.502c1.974-9.469 10.38-16.605 20.426-16.605 6.6 0 12.671 3.025 16.659 8.298l2.92-2.207C61.487 16.848 54.351 13.293 46.591 13.293z"
							fill="#d1abff" data-fill-palette-color="quaternary" />
						<path
							d="M84.347 28.442l-5.788 5.455C77.335 17.757 63.643 4.99 46.975 4.99c-11.984 0-22.808 6.549-28.249 17.091l3.277 1.692C26.81 14.462 36.378 8.678 46.975 8.678c14.567 0 26.565 11.01 27.872 25.021l-5.796-4.643-2.288 2.857 10.395 8.329 9.7-9.137L84.347 28.442z"
							fill="#d1abff" data-fill-palette-color="quaternary" />
					</g>
				</svg>
			</g>
		</svg>
	</g>
</svg>